<svg xmlns="http://www.w3.org/2000/svg" viewBox="0 0 128 128"><defs><style>.cls-4{fill:none;stroke:#2a457f;stroke-linecap:round;stroke-linejoin:round;stroke-width:4px}</style></defs><circle id="circles" cx="64" cy="64" r="54" style="fill:#d6e1ea"/><g id="icons"><path d="M113.93 56a3.99 3.99 0 0 1 3.99 4.23c-.73 12.26-4.01 34.05-5.32 42.39a3.99 3.99 0 0 1-3.95 3.38H19.49a3.99 3.99 0 0 1-3.95-3.38C14.07 93.2 10.07 66.61 10.07 56V46a4 4 0 0 1 4-4h26c14 0 12.33 14 27.17 14z" style="fill:#fff"/><path d="M109.93 36a3.99 3.99 0 0 1 3.99 4.23V56H67.24C52.4 56 54.07 42 40.07 42h-26V26a4 4 0 0 1 4-4h26c14 0 12.33 14 27.17 14Z" style="fill:#a6caff"/><path d="M45 106H19.49a3.99 3.99 0 0 1-3.95-3.38c-.33-2.13-.79-5.13-1.31-8.62-1.57-10.69-3.65-25.98-4.08-35M10.07 49v-3a4 4 0 0 1 4-4h26c14 0 12.33 14 27.17 14H73M55 106h53.65a3.99 3.99 0 0 0 3.95-3.38c.34-2.13.8-5.13 1.31-8.62 1.51-10.21 3.47-24.64 4.01-33.77a3.99 3.99 0 0 0-3.99-4.23H83M48 22.44C57.9 24.79 57.96 36 71.24 36H96M106 36h3.93a3.99 3.99 0 0 1 3.99 4.23v14.96M14.07 42V26a4 4 0 0 1 4-4H38" class="cls-4"/><path d="M83 94H14.23" class="Graphic-Style-2"/><path d="M113.91 94H93" class="cls-4"/></g></svg>