<svg xmlns="http://www.w3.org/2000/svg" viewBox="0 0 90 90"><defs><style>.cls-1{fill:#ffd900;}</style></defs><title>sun</title><g id="sun-2" data-name="sun"><path class="cls-1" d="M17.05,41.12a2.48,2.48,0,0,0-2-2.88l-5.68-1a2.46,2.46,0,0,0-2.84,2,2.49,2.49,0,0,0,2,2.88l5.68,1A2.45,2.45,0,0,0,17.05,41.12Z"/><path class="cls-1" d="M23.3,23.76a2.43,2.43,0,0,0,3.46.31,2.51,2.51,0,0,0,.3-3.5l-3.71-4.48a2.44,2.44,0,0,0-3.46-.31,2.52,2.52,0,0,0-.3,3.51Z"/><path class="cls-1" d="M17.07,59.6l-5,2.93a2.51,2.51,0,0,0-.9,3.4,2.44,2.44,0,0,0,3.35.91l5-2.93a2.51,2.51,0,0,0,.9-3.4A2.43,2.43,0,0,0,17.07,59.6Z"/><path class="cls-1" d="M45,17.33a2.47,2.47,0,0,0,2.45-2.49V9a2.45,2.45,0,1,0-4.9,0v5.85A2.47,2.47,0,0,0,45,17.33Z"/><path class="cls-1" d="M66.7,23.76l3.71-4.48a2.51,2.51,0,0,0-.31-3.5,2.44,2.44,0,0,0-3.46.31l-3.71,4.48a2.52,2.52,0,0,0,.3,3.5A2.43,2.43,0,0,0,66.7,23.76Z"/><path class="cls-1" d="M77.92,62.53l-5-2.93a2.43,2.43,0,0,0-3.35.91,2.5,2.5,0,0,0,.89,3.4l5,2.93a2.43,2.43,0,0,0,3.35-.91A2.51,2.51,0,0,0,77.92,62.53Z"/><path class="cls-1" d="M80.62,37.22l-5.68,1a2.5,2.5,0,0,0-2,2.88,2.46,2.46,0,0,0,2.84,2l5.69-1a2.49,2.49,0,0,0,2-2.88A2.45,2.45,0,0,0,80.62,37.22Z"/><ellipse class="cls-1" cx="45" cy="46.12" rx="22.28" ry="22.6"/><path class="cls-1" d="M35.3,73.17a2.45,2.45,0,0,0-3.15,1.49l-2,5.5a2.5,2.5,0,0,0,1.47,3.19,2.45,2.45,0,0,0,3.15-1.49l2-5.5A2.5,2.5,0,0,0,35.3,73.17Z"/><path class="cls-1" d="M57.85,74.66a2.44,2.44,0,0,0-3.14-1.49,2.51,2.51,0,0,0-1.47,3.19l2,5.5a2.44,2.44,0,0,0,3.14,1.49,2.49,2.49,0,0,0,1.46-3.19Z"/></g></svg>